<svg width="514" height="170" viewBox="0 0 514 170" fill="none" xmlns="http://www.w3.org/2000/svg">
<g filter="url(#filter0_dddd_501_143)">
<rect x="7.5" y="29.5" width="99" height="132.333" rx="14.5" stroke="white"/>
<rect x="407.5" y="29.5" width="99" height="132.333" rx="14.5" stroke="white"/>
<path fill-rule="evenodd" clip-rule="evenodd" d="M235.867 93H278.133C280.342 93 282.133 94.7909 282.133 97V140C282.133 141.105 281.238 142 280.133 142H233.867C232.762 142 231.867 141.105 231.867 140V97C231.867 94.7909 233.657 93 235.867 93ZM228.726 141.849C229.883 141.931 230.867 141.014 230.867 139.854V97C230.867 94.2386 233.105 92 235.867 92H278.133C280.895 92 283.133 94.2386 283.133 97V139.854C283.133 141.014 284.117 141.931 285.274 141.849L493.608 127.131C494.655 127.057 495.467 126.186 495.467 125.136V103V103C495.467 102.448 495.914 102 496.467 102V102H501V102C501.552 102 502 102.448 502 103V103V151V151C502 151.552 501.552 152 501 152V152H13V152C12.4477 152 12 151.552 12 151V151V103V103C12 102.448 12.4477 102 13 102V102H17.5333V102C18.0856 102 18.5333 102.448 18.5333 103V103V125.136C18.5333 126.186 19.3451 127.057 20.3924 127.131L228.726 141.849ZM230.867 143H230.831L230.796 142.998L18.4629 127.998V127.998C17.9392 127.961 17.5333 127.525 17.5333 127V127V105C17.5333 103.895 16.6379 103 15.5333 103H15C13.8954 103 13 103.895 13 105V149C13 150.105 13.8954 151 15 151H499C500.105 151 501 150.105 501 149V105C501 103.895 500.105 103 499 103H498.467C497.362 103 496.467 103.895 496.467 105V127V127C496.467 127.525 496.061 127.961 495.537 127.998V127.998L283.204 142.998L283.169 143H283.133H282.133H231.867H230.867Z" fill="white"/>
<path fill-rule="evenodd" clip-rule="evenodd" d="M331 19.9571L264.086 17.0894C262.949 17.0407 262 17.9494 262 19.0876V56V56C262 56.5523 261.552 57 261 57V57H253V57C252.448 57 252 56.5523 252 56V56V19.0876C252 17.9494 251.051 17.0407 249.914 17.0894L183 19.9571V19.9571C182.455 19.9805 182 19.5448 182 18.9991V18.9991V11.9161C182 10.8449 182.844 9.96382 183.914 9.91796L252 7H262L330.086 9.91796C331.156 9.96382 332 10.8449 332 11.9161V18.9991V18.9991C332 19.5448 331.545 19.9805 331 19.9571V19.9571ZM252 16H251.979L251.957 16.0009L185.086 18.8668C183.949 18.9156 183 18.0068 183 16.8687V12.8742C183 11.8029 183.844 10.9219 184.914 10.876L252.021 8H261.979L329.086 10.876C330.156 10.9219 331 11.8029 331 12.8742V16.8687C331 18.0068 330.051 18.9156 328.914 18.8668L262.043 16.0009L262.021 16H262H261H253H252ZM255 17C253.895 17 253 17.8954 253 19V54C253 55.1046 253.895 56 255 56H259C260.105 56 261 55.1046 261 54V19C261 17.8954 260.105 17 259 17H255Z" fill="white"/>
</g>
<defs>
<filter id="filter0_dddd_501_143" x="0" y="0" width="514" height="169.333" filterUnits="userSpaceOnUse" color-interpolation-filters="sRGB">
<feFlood flood-opacity="0" result="BackgroundImageFix"/>
<feColorMatrix in="SourceAlpha" type="matrix" values="0 0 0 0 0 0 0 0 0 0 0 0 0 0 0 0 0 0 127 0" result="hardAlpha"/>
<feOffset dy="2"/>
<feGaussianBlur stdDeviation="2.5"/>
<feColorMatrix type="matrix" values="0 0 0 0 0.760784 0 0 0 0 0.0392157 0 0 0 0 0.0745098 0 0 0 1 0"/>
<feBlend mode="normal" in2="BackgroundImageFix" result="effect1_dropShadow_501_143"/>
<feColorMatrix in="SourceAlpha" type="matrix" values="0 0 0 0 0 0 0 0 0 0 0 0 0 0 0 0 0 0 127 0" result="hardAlpha"/>
<feOffset dy="-2"/>
<feGaussianBlur stdDeviation="2.5"/>
<feColorMatrix type="matrix" values="0 0 0 0 0.760784 0 0 0 0 0.0392157 0 0 0 0 0.0745098 0 0 0 1 0"/>
<feBlend mode="normal" in2="effect1_dropShadow_501_143" result="effect2_dropShadow_501_143"/>
<feColorMatrix in="SourceAlpha" type="matrix" values="0 0 0 0 0 0 0 0 0 0 0 0 0 0 0 0 0 0 127 0" result="hardAlpha"/>
<feOffset dx="2"/>
<feGaussianBlur stdDeviation="2.5"/>
<feColorMatrix type="matrix" values="0 0 0 0 0.760784 0 0 0 0 0.0392157 0 0 0 0 0.0745098 0 0 0 1 0"/>
<feBlend mode="normal" in2="effect2_dropShadow_501_143" result="effect3_dropShadow_501_143"/>
<feColorMatrix in="SourceAlpha" type="matrix" values="0 0 0 0 0 0 0 0 0 0 0 0 0 0 0 0 0 0 127 0" result="hardAlpha"/>
<feOffset dx="-2"/>
<feGaussianBlur stdDeviation="2.5"/>
<feColorMatrix type="matrix" values="0 0 0 0 0.760784 0 0 0 0 0.0392157 0 0 0 0 0.0745098 0 0 0 1 0"/>
<feBlend mode="normal" in2="effect3_dropShadow_501_143" result="effect4_dropShadow_501_143"/>
<feBlend mode="normal" in="SourceGraphic" in2="effect4_dropShadow_501_143" result="shape"/>
</filter>
</defs>
</svg>
